<?xml version="1.0" encoding="UTF-8"?>
<svg viewBox="0 0 2056 2002" xmlns="http://www.w3.org/2000/svg">
 <g label="Layer 1" transform="translate(2056, 0) scale(-1,1)">
  <path d="m460.29 2002l-460.29-265.75 1534.3-885.83 460.29 265.75-1534.3 885.83-460.29-265.75" fill="#B3B3B3" stroke="#000" label="Layer 1"/>
  <path d="m61.369 1594.5l460.29 265.75 1534.3-885.83v-708.66l-460.29-265.75-1380.9 797.24-153.43 442.91v354.33z" fill="#003f7f" label="Layer 1"/>
  <g transform="translate(2047.6 801.82)" opacity=".8601" stroke="#000" stroke-width="8.2" label="Layer 1">
   <path d="m-422 492.9c59.778 34.535 144.82-43.788 179.33-103.6s59.778-172.67 0-207.21l-90.77-57.352c-59.778-34.535-144.82 43.788-179.33 103.6s-59.778 172.67 0 207.21l90.77 57.352z" fill="#1A1A1A"/>
   <path d="m-380.69 314.83c-22.913 39.838-39.687 115 0 138s96.147-29.163 119.06-69.001 39.687-115 0-138-96.147 29.163-119.06 69.001" fill="#ccc"/>
  </g>
  <g transform="translate(1311.6 1217.8)" opacity=".8189" stroke="#000" stroke-width="8.2" label="Layer 1">
   <path d="m-422 492.9c59.778 34.535 144.82-43.788 179.33-103.6s59.778-172.67 0-207.21l-90.77-57.352c-59.778-34.535-144.82 43.788-179.33 103.6s-59.778 172.67 0 207.21l90.77 57.352z" fill="#1A1A1A"/>
   <path d="m-380.69 314.83c-22.913 39.838-39.687 115 0 138s96.147-29.163 119.06-69.001 39.687-115 0-138-96.147 29.163-119.06 69.001" fill="#ccc"/>
  </g>
  <path d="m2056 265.75l-1380.9 797.25-153.44 442.91v354.34l300.41-173.44c-0.4152-53.975 19.953-116.57 44-158.16 42.23-73.038 146.29-168.67 219.44-126.5 34.65 19.976 45.944 61.435 43.75 107.28l433.88-250.5c0.4942-53.131 20.49-113.87 44-154.53 42.231-73.038 146.29-168.67 219.44-126.5 33.724 19.442 45.301 59.214 43.875 103.59l185.53-107.09v-708.66h-1e-4z" fill="#007fff" label="Layer 1"/>
  <path transform="translate(1638.8 1603.4)" d="m-1423.7-805.44l-153.14 442.07 459.42 265.24 153.14-442.07-459.42-265.24" fill="#7f7f7f" opacity=".6008" stroke="#000" label="Layer 1"/>
  <path transform="translate(1638.8 1603.4)" d="m-1424-806.11l1380.9-797.24 460.29 265.75-1380.9 797.24-460.29-265.75" fill="#aad4ff" stroke="#000" label="Layer 1"/>
  <path transform="translate(1638.8 1603.4)" d="m-1577.4-363.2v354.33l460.29 265.75v-354.33l-460.29-265.75z" fill="#007fff" stroke="#000" label="Layer 1"/>
  <path transform="translate(1638.8 1603.4)" d="m-1546.8-168.31v141.73l61.372 35.433v-141.73l-61.372-35.433" fill="#ff0" opacity=".75" stroke="#000" label="Layer 1"/>
  <path transform="translate(1638.8 1603.4)" d="m-1209.2 26.567v141.73l61.372 35.433v-141.73l-61.372-35.433" fill="#ff0" opacity=".75" stroke="#000" label="Layer 1"/>
  <path transform="translate(1638.8 1603.4)" d="m-1464.5-323.86l138.48-399.76 55.39 31.98-83.086 431.74-110.78-63.961z" fill="#ccc" opacity=".4033" label="Layer 1"/>
  <path transform="translate(1638.8 1603.4)" d="m-1353.7-259.9l110.78-415.75 27.695 15.99-83.086 431.74-55.391-31.98z" fill="#ccc" opacity=".4033" label="Layer 1"/>
  <path transform="translate(1638.8 1603.4)" d="m-1485.4-310.05v354.33l92.058 53.15-30.686-372.05-61.372-35.433z" fill="#F2F2F2" opacity=".1399" label="Layer 1"/>
  <path transform="translate(1638.8 1603.4)" d="m-1362.6-239.18v354.33l61.372 35.433-30.686-372.05-30.686-17.717z" fill="#F2F2F2" opacity=".1687" label="Layer 1"/>
  <path d="m705.77 1080.7l-153.43 407.48 1472.9-850.39v-318.9l-1319.5 761.81z" fill="#003f7f" stroke="#000" label="Layer 1"/>
  <path transform="translate(1638.8 1603.4)" d="m-994.41-203.75v318.9l153.43-88.583v-283.46l-153.43 88.583" fill="#003f7f" stroke="#000" label="Layer 1"/>
  <path d="m675.09 1417.3v318.9l153.43-88.583v-318.9l-153.43 88.583" fill="#003f7f" stroke="#000" label="Layer 1"/>
  <path transform="translate(1638.8 1603.4)" d="m-963.73-186.03l153.43-88.583v-318.9l-122.74 70.866-30.686 88.583v248.03z" fill="#003f7f" stroke="#000" label="Layer 1"/>
  <path transform="translate(1638.8 1603.4)" d="m-1577.4-292.33l460.29 265.75 61.372-35.433v70.866l-61.372 35.433-460.29-265.75v-70.866z" fill="#333" opacity=".7695" stroke="#000" label="Layer 1"/>
 </g>
</svg>
